# xmcd
#
# Track frame offsets:
#	150
#	14749
#	29219
#	44097
#	55894
#	71490
#	83874
#	98309
#	115204
#	130704
#	143535
#	159338
#	174097
#	191069
#	205557
#	219529
#	234950
#	249612
#
# Disc length: 3507 seconds
#
# Revision: 1
# Processed by: cddbd v1.5.2PL0 Copyright (c) Steve Scherf et al.
# Submitted via: audiograbber 1.82.02
#
DISCID=f30db112
DTITLE=Various Artist - Country Radio - November 2018
DYEAR=2018
DGENRE=Country
TTITLE0=Seth Ennis (Ft. Little Big Town) - Call Your Mama
TTITLE1=Zach Stone - Sorry and Lonely
TTITLE2=Lanco - Born To Love You
TTITLE3=Carlton Anderson - Drop Everything
TTITLE4=Jon Langston - When It Comes To Loving You
TTITLE5=Austin Burke - Whole Lot In Love
TTITLE6=Jason Aldean - Girl Like You
TTITLE7=Tenille Townes - Somebody's Daughter
TTITLE8=Chris Lane - I Don't Know About You (Clean)
TTITLE9=Walker Hayes - 90's Country
TTITLE10=Marty Heddin - Fine By Me
TTITLE11=Sundance Head - Leave Her Wild
TTITLE12=Carrie Underwood - Love Wins (Clean)
TTITLE13=Morgan Evans - Day Drunk
TTITLE14=Micheal Tyler - Remember These Words
TTITLE15=Faren Rachels - On Paper
TTITLE16=Adam Hambrick - Rockin' All Night Long
TTITLE17=Billy Currington - Bring It On Over
EXTD=
EXTT0=
EXTT1=
EXTT2=
EXTT3=
EXTT4=
EXTT5=
EXTT6=
EXTT7=
EXTT8=
EXTT9=
EXTT10=
EXTT11=
EXTT12=
EXTT13=
EXTT14=
EXTT15=
EXTT16=
EXTT17=
PLAYORDER=
